<svg width="55" height="55" viewBox="0 0 55 55" fill="none" xmlns="http://www.w3.org/2000/svg">
<path d="M50.3026 0.687744H4.44139C2.2482 0.687744 0.468384 2.4257 0.468384 4.56582V50.6251C0.468384 52.7682 2.2482 54.5084 4.44139 54.5084H50.3026C52.4972 54.5084 54.289 52.7682 54.289 50.6251V4.56582C54.289 2.4257 52.4972 0.687744 50.3026 0.687744ZM16.4307 46.5504H8.4443V20.8667H16.4307V46.5504ZM12.4375 17.355C9.87877 17.355 7.81042 15.2814 7.81042 12.7249C7.81042 10.1721 9.87877 8.09855 12.4375 8.09855C14.9902 8.09855 17.0638 10.1721 17.0638 12.7249C17.0638 15.2814 14.9902 17.355 12.4375 17.355ZM46.3281 46.5504H38.3544V34.061C38.3544 31.0815 38.2961 27.2505 34.205 27.2505C30.0503 27.2505 29.4172 30.4954 29.4172 33.845V46.5512H21.4375V20.8667H29.0957V24.3741H29.2049C30.2708 22.3558 32.8751 20.2261 36.7592 20.2261C44.8368 20.2261 46.3288 25.5439 46.3288 32.4621L46.3281 46.5504Z" fill="black"/>
</svg>
