<svg width="42" height="32" viewBox="0 0 42 32" fill="none" xmlns="http://www.w3.org/2000/svg">
<path d="M34.9734 2.67381C32.2995 1.43473 29.4518 0.521719 26.4519 0C26.0824 0.652149 25.6476 1.54342 25.365 2.26078C22.1912 1.78254 19.0392 1.78254 15.9306 2.26078C15.6263 1.54342 15.1915 0.652149 14.8219 0C11.8221 0.521719 8.97435 1.43473 6.30054 2.67381C0.909441 10.8039 -0.547025 18.7384 0.170339 26.5425C3.75716 29.2163 7.21355 30.8249 10.6265 31.8901C11.4743 30.7379 12.2134 29.4989 12.8655 28.2163C11.6264 27.7598 10.4526 27.1729 9.3439 26.499C9.64824 26.2816 9.93083 26.0425 10.2134 25.8251C17.0175 28.9989 24.3868 28.9989 31.1039 25.8251C31.3865 26.0642 31.6691 26.2816 31.9735 26.499C30.8648 27.1729 29.6692 27.7381 28.4519 28.2163C29.104 29.4989 29.8431 30.7379 30.6909 31.8901C34.1038 30.8249 37.5819 29.2163 41.147 26.5425C41.9948 17.4776 39.6906 9.63006 35.0168 2.67381H34.9734ZM13.7785 21.76C11.7351 21.76 10.0613 19.8688 10.0613 17.5428C10.0613 15.2168 11.6916 13.3256 13.7785 13.3256C15.8654 13.3256 17.5175 15.2168 17.4958 17.5428C17.4958 19.8471 15.8654 21.76 13.7785 21.76ZM27.4954 21.76C25.452 21.76 23.7781 19.8688 23.7781 17.5428C23.7781 15.2168 25.4085 13.3256 27.4954 13.3256C29.5823 13.3256 31.2344 15.2168 31.2126 17.5428C31.2126 19.8471 29.5823 21.76 27.4954 21.76Z" fill="black"/>
</svg>
