<svg width="71" height="55" viewBox="0 0 71 55" fill="none" xmlns="http://www.w3.org/2000/svg">
<path d="M59.9844 5.23024C55.4419 3.12518 50.604 1.57408 45.5075 0.687744C44.8797 1.79567 44.1411 3.30983 43.661 4.52855C38.2691 3.71607 32.9141 3.71607 27.633 4.52855C27.1159 3.30983 26.3773 1.79567 25.7495 0.687744C20.653 1.57408 15.8151 3.12518 11.2726 5.23024C2.11376 19.0424 -0.360607 32.5221 0.858111 45.7803C6.9517 50.3228 12.8237 53.0557 18.6219 54.8653C20.0622 52.908 21.3178 50.8029 22.4257 48.624C20.3207 47.8484 18.3264 46.8513 16.4429 45.7065C16.96 45.3372 17.4401 44.9309 17.9202 44.5616C29.4795 49.9535 41.9991 49.9535 53.4107 44.5616C53.8908 44.9678 54.3709 45.3372 54.8879 45.7065C53.0045 46.8513 50.9733 47.8115 48.9052 48.624C50.0131 50.8029 51.2687 52.908 52.709 54.8653C58.5072 53.0557 64.4161 50.3228 70.4728 45.7803C71.9131 30.3802 67.9984 17.0481 60.0583 5.23024H59.9844ZM23.9768 37.6555C20.5053 37.6555 17.6616 34.4425 17.6616 30.4909C17.6616 26.5393 20.4315 23.3264 23.9768 23.3264C27.5222 23.3264 30.3289 26.5393 30.292 30.4909C30.292 34.4056 27.5222 37.6555 23.9768 37.6555ZM47.2802 37.6555C43.8087 37.6555 40.965 34.4425 40.965 30.4909C40.965 26.5393 43.7348 23.3264 47.2802 23.3264C50.8256 23.3264 53.6323 26.5393 53.5954 30.4909C53.5954 34.4056 50.8256 37.6555 47.2802 37.6555Z" fill="black"/>
</svg>
