<svg width="35" height="32" viewBox="0 0 35 32" fill="none" xmlns="http://www.w3.org/2000/svg">
<path d="M34.3369 10.57C34.6035 10.3116 35 10.5533 35 10.9618V28.0088C35 30.2178 33.5303 32.01 31.7188 32.01H3.28125C1.46973 32.01 0 30.2178 0 28.0088V10.9701C0 10.5533 0.389648 10.3199 0.663086 10.5783C2.19434 12.0288 4.22461 13.871 11.1973 20.0479C12.6396 21.3317 15.0732 24.0325 17.5 24.0158C19.9404 24.0408 22.4219 21.2817 23.8096 20.0479C30.7822 13.871 32.8057 12.0204 34.3369 10.57ZM17.5 21.34C19.0859 21.3733 21.3691 18.9059 22.5176 17.8889C31.5889 9.86141 32.2793 9.1612 34.3711 7.16057C34.7676 6.78545 35 6.20194 35 5.58508V4.00125C35 1.79223 33.5303 0 31.7188 0H3.28125C1.46973 0 0 1.79223 0 4.00125V5.58508C0 6.20194 0.232422 6.77712 0.628906 7.16057C2.7207 9.15286 3.41113 9.86141 12.4824 17.8889C13.6309 18.9059 15.9141 21.3733 17.5 21.34Z" fill="black"/>
</svg>
