<svg width="60" height="56" viewBox="0 0 60 56" fill="none" xmlns="http://www.w3.org/2000/svg">
<path d="M58.7136 18.6449C59.1665 18.2059 59.8401 18.6166 59.8401 19.3105V48.2714C59.8401 52.0243 57.3432 55.069 54.2657 55.069H5.95362C2.87605 55.069 0.37915 52.0243 0.37915 48.2714V19.3247C0.37915 18.6166 1.04112 18.22 1.50566 18.6591C4.10707 21.1232 7.55628 24.253 19.402 34.7469C21.8525 36.9278 25.9869 41.5162 30.1096 41.4879C34.2556 41.5304 38.4713 36.8428 40.8289 34.7469C52.6746 24.253 56.1122 21.1091 58.7136 18.6449ZM30.1096 36.9419C32.804 36.9986 36.6829 32.8067 38.6339 31.079C54.045 17.4412 55.218 16.2516 58.7717 12.8527C59.4453 12.2154 59.8401 11.2241 59.8401 10.1761V7.48541C59.8401 3.73253 57.3432 0.687744 54.2657 0.687744H5.95362C2.87605 0.687744 0.37915 3.73253 0.37915 7.48541V10.1761C0.37915 11.2241 0.774008 12.2013 1.44759 12.8527C5.00131 16.2374 6.17427 17.4412 21.5853 31.079C23.5364 32.8067 27.4153 36.9986 30.1096 36.9419Z" fill="black"/>
</svg>
