<svg width="32" height="32" viewBox="0 0 32 32" fill="none" xmlns="http://www.w3.org/2000/svg">
<path d="M29.3335 0H2.3386C1.04764 0 0 1.023 0 2.28272V29.3942C0 30.6557 1.04764 31.68 2.3386 31.68H29.3335C30.6253 31.68 31.68 30.6557 31.68 29.3942V2.28272C31.68 1.023 30.6253 0 29.3335 0ZM9.39576 26.9957H4.6948V11.8778H9.39576V26.9957ZM7.04528 9.81068C5.53916 9.81068 4.32168 8.59012 4.32168 7.08532C4.32168 5.58272 5.53916 4.36216 7.04528 4.36216C8.54788 4.36216 9.76844 5.58272 9.76844 7.08532C9.76844 8.59012 8.54788 9.81068 7.04528 9.81068ZM26.994 26.9957H22.3005V19.6442C22.3005 17.8904 22.2662 15.6354 19.8581 15.6354C17.4126 15.6354 17.0399 17.5454 17.0399 19.5171V26.9962H12.3429V11.8778H16.8507V13.9423H16.9149C17.5424 12.7543 19.0753 11.5007 21.3615 11.5007C26.1162 11.5007 26.9944 14.6309 26.9944 18.7031L26.994 26.9957Z" fill="black"/>
</svg>
